<svg xmlns="http://www.w3.org/2000/svg" xmlns:xlink="http://www.w3.org/1999/xlink" version="1.1" x="0px" y="0px" viewBox="0 0 64 80" style="enable-background:new 0 0 64 64;" xml:space="preserve"><g><path d="M22,27c2.757,0,5-2.243,5-5s-2.243-5-5-5s-5,2.243-5,5S19.243,27,22,27z M22,19c1.654,0,3,1.346,3,3s-1.346,3-3,3   s-3-1.346-3-3S20.346,19,22,19z"/><path d="M22,39c2.757,0,5-2.243,5-5s-2.243-5-5-5s-5,2.243-5,5S19.243,39,22,39z M22,31c1.654,0,3,1.346,3,3s-1.346,3-3,3   s-3-1.346-3-3S20.346,31,22,31z"/><path d="M22,51c2.757,0,5-2.243,5-5s-2.243-5-5-5s-5,2.243-5,5S19.243,51,22,51z M22,43c1.654,0,3,1.346,3,3s-1.346,3-3,3   s-3-1.346-3-3S20.346,43,22,43z"/><path d="M60,55h-2V8c0-3.859-3.141-7-7-7H14c-2.206,0-4,1.794-4,4s1.794,4,4,4h3v4h-1c-2.414,0-4.434,1.721-4.899,4H1v5h1   c2.95,0,5.438,1.764,5.914,4.192L8.072,27H11v2H1v5h1c2.95,0,5.438,1.764,5.914,4.192L8.072,39H11v2H1v5h1   c2.95,0,5.438,1.764,5.914,4.192L8.072,51h3.029c0.465,2.279,2.484,4,4.899,4h12c2.414,0,4.434-1.721,4.899-4h3.03l0.158-0.808   C36.562,47.763,39.05,46,42,46h1v-5H33v-2h2.929l0.158-0.808C36.562,35.763,39.05,34,42,34h1v-5H33v-2h2.929l0.158-0.808   C36.562,23.763,39.05,22,42,22h1v-5H32.899c-0.465-2.279-2.484-4-4.899-4h-1V9h22c0.552,0,1,0.448,1,1v45h-2c-1.654,0-3,1.346-3,3   v5h18v-5C63,56.346,61.654,55,60,55z M9.662,25C8.764,22.336,6.148,20.396,3,20.054V19h8v6H9.662z M9.662,37   C8.764,34.336,6.148,32.396,3,32.054V31h8v6H9.662z M3,44.054V43h8v6H9.662C8.764,46.336,6.148,44.396,3,44.054z M41,43v1.054   c-3.148,0.343-5.764,2.282-6.661,4.946H33v-6H41z M41,31v1.054c-3.148,0.343-5.764,2.282-6.661,4.946H33v-6H41z M41,20.054   c-3.148,0.343-5.764,2.282-6.661,4.946H33v-6h8V20.054z M31,18v32c0,1.654-1.346,3-3,3H16c-1.654,0-3-1.346-3-3V18   c0-1.654,1.346-3,3-3h12C29.654,15,31,16.346,31,18z M25,13h-6V9h6V13z M49,7H14c-1.103,0-2-0.897-2-2s0.897-2,2-2h37   c2.757,0,5,2.243,5,5v47h-4V10C52,8.346,50.654,7,49,7z M61,61H47v-3c0-0.552,0.448-1,1-1h12c0.552,0,1,0.448,1,1V61z"/></g><text x="0" y="79" fill="#000000" font-size="5px" font-weight="bold" font-family="'Helvetica Neue', Helvetica, Arial-Unicode, Arial, Sans-serif">Created by Eucalyp</text><text x="0" y="84" fill="#000000" font-size="5px" font-weight="bold" font-family="'Helvetica Neue', Helvetica, Arial-Unicode, Arial, Sans-serif">from the Noun Project</text></svg>