<svg width="1445" height="274" viewBox="0 0 1445 274" fill="none" xmlns="http://www.w3.org/2000/svg">
<rect width="1445" height="274" fill="#F5F5F5"/>
<g clip-path="url(#clip0_0_1)">
<path d="M296.631 141.476H395.685L473.437 74.3958" stroke="#EA514C" stroke-width="3.86349" stroke-linecap="round" stroke-linejoin="round"/>
<path d="M395.695 141.476L471.157 215.65" stroke="#EA514C" stroke-width="3.86349" stroke-linecap="round" stroke-linejoin="round"/>
<path d="M1059.36 230.339C1059.99 263.321 1073.03 277.022 1100.42 272.135C1152.28 262.88 1204.39 249.461 1257.27 233.494C1267.94 230.271 1276.8 232.039 1309.37 232.705C1335.15 233.232 1352.18 234.791 1369.9 244.534C1396.1 258.938 1407.99 247.172 1426.75 247.688C1412.37 237.961 1394.7 233.138 1384.64 216.933C1369.37 192.31 1356.13 182.404 1343.06 176.714C1327.11 169.766 1320.47 156.103 1315.16 142.804C1321.83 140.946 1328.44 141.99 1335.16 142.015C1345.38 142.054 1352.57 132.981 1360.96 125.455C1370.22 117.147 1381.75 119.881 1399.38 123.878C1409.41 126.152 1415.93 115.525 1423.07 112.049C1429.91 108.713 1437.45 111.731 1444.65 111.26C1417.15 87.342 1412.45 87.6686 1400.96 86.0248C1386.41 83.9424 1369.07 77.01 1351.48 71.0415C1324.88 62.0125 1295.84 63.2852 1267.79 65.5213C1223.39 69.0608 1188.15 82.5674 1153.58 93.333L1059.36 230.339Z" fill="url(#paint0_linear_0_1)"/>
<path d="M1154.59 203.522C1150.9 218.477 1132.32 227.047 1100.91 217.717C1084.75 212.917 1072.45 220.6 1059.32 230.335L1060.29 148.264L1153.6 99.4153L1154.59 203.522Z" fill="url(#paint1_linear_0_1)"/>
<path d="M472.415 71.0496L469.257 217.728C513.149 241.12 564.676 256.039 901.922 168.835C977.501 149.292 1053.56 134.699 1129.25 163.737C1142.59 168.856 1151.78 182.231 1154.58 203.532L1152.96 33.6985C1111.14 -11.6925 1008.35 -1.43848 957.718 8.75107C834.645 33.518 576.886 122.648 472.416 71.0509L472.415 71.0496Z" fill="url(#paint2_linear_0_1)"/>
<path d="M213.623 127.107C213.623 135.88 208.464 142.992 202.101 142.992C195.737 142.992 190.579 135.88 190.579 127.107C190.579 118.335 195.737 111.223 202.101 111.223C208.464 111.223 213.623 118.335 213.623 127.107Z" fill="#16484D"/>
<path d="M210.513 101.4C210.513 107.785 206.758 112.962 202.126 112.962C197.494 112.962 193.739 107.785 193.739 101.4C193.739 95.014 197.494 89.8375 202.126 89.8375C206.758 89.8375 210.513 95.014 210.513 101.4Z" fill="#16484D"/>
<path d="M199.046 112.156C195.939 110.463 193.741 106.285 193.741 101.399C193.741 98.4251 194.555 95.7132 195.894 93.6644C203.927 93.4316 205.01 109.362 199.046 112.156Z" fill="#F3E2C4"/>
<path d="M186.297 112.151L35.1083 113.59L34.0917 187.628L70.5767 205.059L118.017 210.474C140.89 210.997 180.278 201.741 221.709 188.39L234.812 195.243L238.257 182.89C272.506 171.114 306.869 157.139 333.25 143.967C335.933 142.627 340.407 137.308 333.532 136.013L212.139 113.079C211.536 140.863 184.278 134.219 186.273 112.149L186.297 112.151Z" fill="url(#paint3_linear_0_1)"/>
<path d="M35.1009 113.614C56.8079 128.519 50.0224 176.364 34.1061 187.644C28.5198 179.422 24.1548 168.557 24.1543 148.247C23.7466 136.269 26.7636 124.656 35.1009 113.614Z" fill="#16484D"/>
<path d="M50.3542 113.451C74.8915 95.6214 99.8515 74.2603 123.964 45.0364C130.605 36.9871 136.339 33.9486 142.535 34.1059C167.817 34.7474 189.129 37.6426 204.55 46.527C210.36 49.8742 210.884 52.5925 202.229 59.9419C181.568 77.4854 154.538 95.5992 128.94 112.676L50.3542 113.451Z" fill="#16484D"/>
<path d="M45.3662 212.47C42.9984 213.722 42.6096 217.993 46.3611 217.936L111.359 216.942L129.2 207.016C154.945 192.692 180.993 178.777 204.878 156.824C211.059 151.142 209.763 145.422 202.224 142.912C183.996 136.843 166.954 133.712 141.867 132.478C131.181 131.953 129.014 136.115 124.623 141.422C101.743 169.072 78.2971 195.061 45.3634 212.471L45.3662 212.47Z" fill="#16484D"/>
<path d="M273.117 124.579C273.117 124.579 276.842 120.986 278.194 118.431C284.194 107.088 290.781 79.319 290.781 79.319C293.893 69.6496 297.094 59.6448 310.346 58.9481L329.248 57.9545L325.764 134.492L273.117 124.579Z" fill="#16484D"/>
<path d="M98.7124 246.424C98.7124 257.496 92.2016 266.472 84.1703 266.472C76.139 266.472 69.6283 257.496 69.6283 246.424C69.6283 235.352 76.139 226.376 84.1703 226.376C92.2016 226.376 98.7124 235.352 98.7124 246.424Z" fill="#16484D"/>
<path d="M239.837 197.105C239.837 200.716 237.713 203.643 235.094 203.643C232.475 203.643 230.352 200.716 230.352 197.105C230.352 193.494 232.475 190.567 235.094 190.567C237.713 190.567 239.837 193.494 239.837 197.105Z" fill="#16484D"/>
<path d="M63.9167 239.144C63.9167 219.86 74.3487 204.227 87.2171 204.227C100.085 204.227 110.517 219.86 110.517 239.144H87.2171H63.9167Z" fill="#C0534C"/>
<path d="M91.4449 246.442C91.4449 251.934 88.2153 256.386 84.2314 256.386C80.2475 256.386 77.0179 251.934 77.0179 246.442C77.0179 240.95 80.2475 236.497 84.2314 236.497C88.2153 236.497 91.4449 240.95 91.4449 246.442Z" fill="#216268"/>
<path d="M65.8251 152.167C65.8251 196.845 51.3006 233.067 33.383 233.067C15.4659 233.067 0.940674 196.848 0.940674 152.167C0.940674 107.488 15.4653 71.2661 33.383 71.2661C51.3 71.2661 65.8251 107.485 65.8251 152.167Z" stroke="#F2F2F2" stroke-width="2.35118"/>
<path d="M18.4471 80.3333C28.4775 67.369 40.4904 68.3509 50.1597 82.9252L33.3767 152.157L18.4471 80.3333Z" fill="url(#paint4_linear_0_1)"/>
<path d="M51.7377 218.856C40.3985 238.262 25.3856 237.73 14.2719 217.529L33.3809 152.153L51.7377 218.856Z" fill="url(#paint5_linear_0_1)"/>
</g>
<defs>
<linearGradient id="paint0_linear_0_1" x1="1461.95" y1="223.184" x2="1047.05" y2="232.552" gradientUnits="userSpaceOnUse">
<stop stop-color="#EC6B65"/>
<stop offset="0.83714" stop-color="#EC6B65"/>
<stop offset="0.93243" stop-color="#E94945"/>
<stop offset="1" stop-color="#E3695F"/>
</linearGradient>
<linearGradient id="paint1_linear_0_1" x1="1142.4" y1="201.159" x2="1066.66" y2="200.105" gradientUnits="userSpaceOnUse">
<stop stop-color="#2A2323"/>
<stop offset="0.28445" stop-color="#B51C17"/>
<stop offset="0.54172" stop-color="#B51C17"/>
<stop offset="0.69472" stop-color="#D7211B"/>
<stop offset="0.84743" stop-color="#B51C17"/>
<stop offset="1" stop-color="#B51C17"/>
</linearGradient>
<linearGradient id="paint2_linear_0_1" x1="503.997" y1="153.069" x2="1133.66" y2="133.978" gradientUnits="userSpaceOnUse">
<stop stop-color="#271514"/>
<stop offset="0.83714" stop-color="#EC6B65"/>
<stop offset="0.93243" stop-color="#E94945"/>
<stop offset="1" stop-color="#E3695F"/>
</linearGradient>
<linearGradient id="paint3_linear_0_1" x1="76.2163" y1="102.377" x2="83.6144" y2="195.955" gradientUnits="userSpaceOnUse">
<stop stop-color="#D67678"/>
<stop offset="0.51309" stop-color="#D67678"/>
<stop offset="0.64579" stop-color="#C0534C"/>
<stop offset="1" stop-color="#C0534C"/>
</linearGradient>
<linearGradient id="paint4_linear_0_1" x1="28.7541" y1="107.844" x2="41.7317" y2="107.844" gradientUnits="userSpaceOnUse">
<stop stop-color="white" stop-opacity="0.23404"/>
<stop offset="0.48792" stop-color="white"/>
<stop offset="1" stop-color="white" stop-opacity="0.23404"/>
</linearGradient>
<linearGradient id="paint5_linear_0_1" x1="26.5912" y1="201.75" x2="41.1319" y2="201.606" gradientUnits="userSpaceOnUse">
<stop stop-color="white" stop-opacity="0.23404"/>
<stop offset="0.48792" stop-color="white"/>
<stop offset="1" stop-color="white" stop-opacity="0.23404"/>
</linearGradient>
<clipPath id="clip0_0_1">
<rect width="1444.65" height="273.097" fill="white"/>
</clipPath>
</defs>
</svg>
